<svg id="Capa_1" enable-background="new 0 0 512 512" height="512" viewBox="0 0 512 512" width="512" xmlns="http://www.w3.org/2000/svg"><g><g><g><path d="m256 15-10.667 251.667 10.667 230.333c133.101 0 241-107.899 241-241s-107.899-241-241-241z" fill="#f0e6e6"/><path d="m15 256c0 133.101 107.899 241 241 241v-482c-133.101 0-241 107.899-241 241z" fill="#fff7f4"/></g><g><path d="m512 256c0-68.38-26.629-132.667-74.98-181.019-48.353-48.352-112.64-74.981-181.02-74.981l-10.667 10.667 10.667 19.333c60.367 0 117.12 23.508 159.805 66.194 42.687 42.686 66.195 99.439 66.195 159.806s-23.508 117.12-66.194 159.806-99.439 66.194-159.806 66.194l-10.667 19.333 10.667 10.667c68.38 0 132.667-26.629 181.019-74.981s74.981-112.639 74.981-181.019z" fill="#5bc980"/><path d="m256 482c-60.367 0-117.12-23.508-159.806-66.194s-66.194-99.439-66.194-159.806 23.508-117.12 66.194-159.806 99.439-66.194 159.806-66.194v-30c-68.38 0-132.667 26.629-181.019 74.981s-74.981 112.639-74.981 181.019 26.629 132.667 74.981 181.019 112.639 74.981 181.019 74.981z" fill="#bee75e"/></g></g><g><g><path d="m381.789 194.897c-6.422-44.808-27.797-81.778-60.189-104.102l-16.219-11.178-6.463 18.607c-6.515 18.757-21.917 36.51-42.919 49.783l-10.667 118.659 10.668 100.58c2.466-.169 4.937-.403 7.414-.719 38.232-4.882 73.669-27.464 97.225-61.956 19.081-27.941 26.988-68.941 21.15-109.674z" fill="#5bc980"/><path d="m235.882 159.066c-22.244 11.581-43.254 22.521-62.52 40.909-16.807 16.042-28.26 36.205-32.248 56.774-4.816 24.838 2.053 51.751 17.819 74.837 26.198 22.869 50.234 35.658 97.067 35.658v-219.236c-2.933 1.854-16.483 9.166-20.118 11.058z" fill="#bee75e"/></g><g><path d="m283.567 260.248-22.801-19.496c-1.366 1.597-2.982 3.192-4.766 4.784l-10.667 21.131 10.667 15.894c10.785-6.815 20.542-14.097 27.567-22.313z" fill="#00a78e"/><path d="m216.363 270.957c-14.771 8.273-30.046 16.829-41.738 26.47-28.457 23.464-42.29 55.987-42.29 99.426h30c0-45.183 17.907-65.173 31.375-76.279 9.616-7.929 23.696-15.815 37.314-23.442 8.435-4.724 16.987-9.52 24.977-14.57v-37.026c-9.652 8.613-24.846 17.136-39.638 25.421z" fill="#5bc980"/></g></g></g></svg>